
        <svg xmlns="http://www.w3.org/2000/svg" xmlns:xlink="http://www.w3.org/1999/xlink" version="1.1" width="3134.3592318504834" height="792.7194679178534" viewBox="0 0 3134.3592318504834 792.7194679178534">
&#x9;&#x9;&#x9;
&#x9;&#x9;&#x9;<g transform="scale(6.717961592524182) translate(10, 10)">
&#x9;&#x9;&#x9;&#x9;<defs id="SvgjsDefs2859"><linearGradient id="SvgjsLinearGradient2868"><stop id="SvgjsStop2869" stop-color="#945f50" offset="0"></stop><stop id="SvgjsStop2870" stop-color="#fcc5b3" offset="0.5"></stop><stop id="SvgjsStop2871" stop-color="#945f50" offset="1"></stop></linearGradient><linearGradient id="SvgjsLinearGradient2872"><stop id="SvgjsStop2873" stop-color="#7d141d" offset="0"></stop><stop id="SvgjsStop2874" stop-color="#ff1e27" offset="1"></stop></linearGradient></defs><g id="SvgjsG2860" featureKey="sloganFeature-0" transform="matrix(1.1660853343564337,0,0,1.1660853343564337,-1.8190940279295285,73.03856588015825)" fill="#cc3b3b"><path d="M2.18 7.36 l6.04 0 c0.42 0 0.62 0.34 0.62 0.68 s-0.2 0.66 -0.62 0.66 l-2.28 0 l0 10.06 c0 0.42 -0.34 0.64 -0.68 0.64 s-0.66 -0.22 -0.66 -0.64 l0 -10.06 l-2.42 0 c-0.42 0 -0.62 -0.32 -0.62 -0.66 s0.2 -0.68 0.62 -0.68 z M12.88 15.86 l0 -4.96 c0 -2.4 1.24 -3.68 3.64 -3.68 l0.52 0 c2.38 0 3.64 1.28 3.64 3.68 l0 4.96 c0 2.2 -1.46 3.64 -3.64 3.64 l-0.52 0 c-2.22 0 -3.64 -1.46 -3.64 -3.64 z M16.52 18.16 l0.52 0 c1.44 0 2.3 -0.9 2.3 -2.3 l0 -4.96 c0 -1.56 -0.76 -2.36 -2.3 -2.36 l-0.52 0 c-1.52 0 -2.36 0.82 -2.36 2.36 l0 4.96 c0 1.46 0.92 2.3 2.36 2.3 z M32.26 8 l0 10.76 c0 0.42 -0.32 0.64 -0.64 0.64 c-0.24 0 -0.56 -0.18 -0.7 -0.44 c-1.5 -2.94 -2.62 -5.2 -4.12 -8.16 l0 7.96 c0 0.42 -0.32 0.64 -0.66 0.64 c-0.32 0 -0.66 -0.22 -0.66 -0.64 l0 -10.76 c0 -0.7 1 -0.74 1.22 -0.32 l4.22 8.34 l0 -8.02 c0 -0.42 0.32 -0.64 0.66 -0.64 s0.68 0.22 0.68 0.64 z M51.38 10.28 l0 2.5 c0 2.38 -1.24 3.14 -3.34 3.14 l-1.86 0 l0 2.84 c0 0.42 -0.34 0.64 -0.66 0.64 c-0.34 0 -0.66 -0.22 -0.66 -0.64 l0 -10.74 c0 -0.38 0.32 -0.66 0.66 -0.66 l2.7 0 c1.1 0 3.16 0.22 3.16 2.92 z M48.22 8.7 l-2.04 0 l0 5.86 l1.86 0 c0.98 0 2.04 -0.24 2.02 -1.8 l-0.02 -2.48 c0 -0.48 -0.08 -1.58 -1.82 -1.58 z M55.52 18.76 l0 -10.76 c0 -0.42 0.32 -0.64 0.64 -0.64 s0.66 0.22 0.66 0.64 l0 10.06 l3.98 0 c0.44 0 0.68 0.34 0.68 0.68 s-0.24 0.66 -0.68 0.66 l-4.62 0 c-0.4 0 -0.66 -0.32 -0.66 -0.64 z M65.34 15.86 l0 -7.86 c0 -0.42 0.34 -0.64 0.66 -0.64 c0.34 0 0.66 0.22 0.66 0.64 l0 7.86 c0 1.44 0.98 2.3 2.34 2.3 l0.5 0 c1.4 0 2.36 -0.98 2.36 -2.3 l0 -7.86 c0 -0.42 0.32 -0.64 0.66 -0.64 c0.32 0 0.66 0.22 0.66 0.64 l0 7.86 c0 2.06 -1.46 3.64 -3.68 3.64 l-0.5 0 c-2.22 0 -3.66 -1.54 -3.66 -3.64 z M77.76 17.68 c-0.44 -0.82 0.68 -1.42 1.2 -0.6 c0.26 0.42 1.04 1.14 2.28 1.14 c0.52 0 1.82 -0.38 2 -1.86 c0.12 -0.9 -0.74 -1.78 -2.22 -2.52 c-2.08 -0.98 -3.66 -1.84 -3.66 -3.56 c0 -2.04 1.72 -3 3.56 -3 c1.66 0 2.58 1.02 2.9 1.54 c0.46 0.74 -0.54 1.46 -1.1 0.74 c-0.28 -0.36 -0.82 -0.96 -1.8 -0.96 c-1.1 0 -2.24 0.52 -2.24 1.68 c0 0.92 1.02 1.44 2.54 2.16 c1.78 0.88 3.64 1.74 3.36 4.08 c-0.22 1.84 -1.62 3.02 -3.34 3.02 c-1.3 0 -2.9 -0.7 -3.48 -1.86 z M96.48 18.72 l0 -10.72 c0 -0.32 0.16 -0.64 0.6 -0.64 l2.62 0 c1.98 0 3.06 0.72 3.06 2.72 c0 0.8 -0.1 1.58 -0.6 2.12 c1.14 0.8 1.34 2.18 1.34 3.58 c0 2.46 -1.34 3.62 -3.64 3.62 l-2.68 0 c-0.34 0 -0.7 -0.12 -0.7 -0.68 z M97.82 18.08 l1.74 0 c1.66 0 2.58 -0.68 2.58 -2.3 c0 -1.66 -0.42 -2.78 -2.04 -2.78 l-2.28 0 l0 5.08 z M101.44 10.08 c0 -1.2 -0.84 -1.38 -1.74 -1.38 l-1.88 0 l0 2.96 l1.84 0 c1.26 0 1.78 -0.36 1.78 -1.58 z M107.98 18.7 l0 -10.64 c0 -0.46 0.36 -0.7 0.7 -0.7 l4.6 0 c0.44 0 0.66 0.32 0.66 0.66 s-0.22 0.68 -0.66 0.68 l-3.96 0 l0 3.88 l3.14 0 c0.46 0 0.68 0.32 0.68 0.66 s-0.24 0.7 -0.68 0.7 l-3.14 0 l0 4.14 l3.96 0 c0.42 0 0.64 0.34 0.64 0.66 c0 0.34 -0.22 0.66 -0.64 0.66 l-4.6 0 c-0.34 0 -0.7 -0.12 -0.7 -0.7 z M118.54 18.76 l0 -10.76 c0 -0.42 0.32 -0.64 0.64 -0.64 s0.66 0.22 0.66 0.64 l0 10.06 l3.98 0 c0.44 0 0.68 0.34 0.68 0.68 s-0.24 0.66 -0.68 0.66 l-4.62 0 c-0.4 0 -0.66 -0.32 -0.66 -0.64 z M135.94 18.78 l0 -10.78 c0 -0.42 0.32 -0.64 0.64 -0.64 s0.66 0.22 0.66 0.64 l0 10.78 c0 0.86 -1.3 0.86 -1.3 0 z M149.02 8 l0 10.76 c0 0.42 -0.32 0.64 -0.64 0.64 c-0.24 0 -0.56 -0.18 -0.7 -0.44 c-1.5 -2.94 -2.62 -5.2 -4.12 -8.16 l0 7.96 c0 0.42 -0.32 0.64 -0.66 0.64 c-0.32 0 -0.66 -0.22 -0.66 -0.64 l0 -10.76 c0 -0.7 1 -0.74 1.22 -0.32 l4.22 8.34 l0 -8.02 c0 -0.42 0.32 -0.64 0.66 -0.64 s0.68 0.22 0.68 0.64 z M154.7 7.8 l2.62 9.02 l2.74 -8.98 c0.26 -0.86 1.48 -0.52 1.24 0.32 l-3.2 10.68 c-0.1 0.36 -0.42 0.56 -0.76 0.56 s-0.7 -0.2 -0.8 -0.56 l-3.06 -10.66 c-0.26 -0.9 1 -1.16 1.22 -0.38 z M165.62 18.7 l0 -10.64 c0 -0.46 0.36 -0.7 0.7 -0.7 l4.6 0 c0.44 0 0.66 0.32 0.66 0.66 s-0.22 0.68 -0.66 0.68 l-3.96 0 l0 3.88 l3.14 0 c0.46 0 0.68 0.32 0.68 0.66 s-0.24 0.7 -0.68 0.7 l-3.14 0 l0 4.14 l3.96 0 c0.42 0 0.64 0.34 0.64 0.66 c0 0.34 -0.22 0.66 -0.64 0.66 l-4.6 0 c-0.34 0 -0.7 -0.12 -0.7 -0.7 z M175.9 17.68 c-0.44 -0.82 0.68 -1.42 1.2 -0.6 c0.26 0.42 1.04 1.14 2.28 1.14 c0.52 0 1.82 -0.38 2 -1.86 c0.12 -0.9 -0.74 -1.78 -2.22 -2.52 c-2.08 -0.98 -3.66 -1.84 -3.66 -3.56 c0 -2.04 1.72 -3 3.56 -3 c1.66 0 2.58 1.02 2.9 1.54 c0.46 0.74 -0.54 1.46 -1.1 0.74 c-0.28 -0.36 -0.82 -0.96 -1.8 -0.96 c-1.1 0 -2.24 0.52 -2.24 1.68 c0 0.92 1.02 1.44 2.54 2.16 c1.78 0.88 3.64 1.74 3.36 4.08 c-0.22 1.84 -1.62 3.02 -3.34 3.02 c-1.3 0 -2.9 -0.7 -3.48 -1.86 z M186.82 7.36 l6.04 0 c0.42 0 0.62 0.34 0.62 0.68 s-0.2 0.66 -0.62 0.66 l-2.28 0 l0 10.06 c0 0.42 -0.34 0.64 -0.68 0.64 s-0.66 -0.22 -0.66 -0.64 l0 -10.06 l-2.42 0 c-0.42 0 -0.62 -0.32 -0.62 -0.66 s0.2 -0.68 0.62 -0.68 z M197.72 18.78 l0 -10.78 c0 -0.42 0.32 -0.64 0.64 -0.64 s0.66 0.22 0.66 0.64 l0 10.78 c0 0.86 -1.3 0.86 -1.3 0 z M203.74 17.68 c-0.44 -0.82 0.68 -1.42 1.2 -0.6 c0.26 0.42 1.04 1.14 2.28 1.14 c0.52 0 1.82 -0.38 2 -1.86 c0.12 -0.9 -0.74 -1.78 -2.22 -2.52 c-2.08 -0.98 -3.66 -1.84 -3.66 -3.56 c0 -2.04 1.72 -3 3.56 -3 c1.66 0 2.58 1.02 2.9 1.54 c0.46 0.74 -0.54 1.46 -1.1 0.74 c-0.28 -0.36 -0.82 -0.96 -1.8 -0.96 c-1.1 0 -2.24 0.52 -2.24 1.68 c0 0.92 1.02 1.44 2.54 2.16 c1.78 0.88 3.64 1.74 3.36 4.08 c-0.22 1.84 -1.62 3.02 -3.34 3.02 c-1.3 0 -2.9 -0.7 -3.48 -1.86 z M214.74 17.68 c-0.44 -0.82 0.68 -1.42 1.2 -0.6 c0.26 0.42 1.04 1.14 2.28 1.14 c0.52 0 1.82 -0.38 2 -1.86 c0.12 -0.9 -0.74 -1.78 -2.22 -2.52 c-2.08 -0.98 -3.66 -1.84 -3.66 -3.56 c0 -2.04 1.72 -3 3.56 -3 c1.66 0 2.58 1.02 2.9 1.54 c0.46 0.74 -0.54 1.46 -1.1 0.74 c-0.28 -0.36 -0.82 -0.96 -1.8 -0.96 c-1.1 0 -2.24 0.52 -2.24 1.68 c0 0.92 1.02 1.44 2.54 2.16 c1.78 0.88 3.64 1.74 3.36 4.08 c-0.22 1.84 -1.62 3.02 -3.34 3.02 c-1.3 0 -2.9 -0.7 -3.48 -1.86 z M225.98 18.7 l0 -10.64 c0 -0.46 0.36 -0.7 0.7 -0.7 l4.6 0 c0.44 0 0.66 0.32 0.66 0.66 s-0.22 0.68 -0.66 0.68 l-3.96 0 l0 3.88 l3.14 0 c0.46 0 0.68 0.32 0.68 0.66 s-0.24 0.7 -0.68 0.7 l-3.14 0 l0 4.14 l3.96 0 c0.42 0 0.64 0.34 0.64 0.66 c0 0.34 -0.22 0.66 -0.64 0.66 l-4.6 0 c-0.34 0 -0.7 -0.12 -0.7 -0.7 z M245.14 18.76 l0 -8.92 l-3.18 9 c-0.18 0.5 -0.84 0.62 -1.04 0 l-3.08 -9 l0 8.92 c0 0.42 -0.32 0.64 -0.66 0.64 s-0.68 -0.22 -0.68 -0.64 l0 -10.74 c0 -0.38 0.28 -0.66 0.68 -0.66 l0.64 0 c0.44 0 0.68 0.32 0.78 0.62 c0.96 2.86 1.84 5.4 2.82 8.28 l2.9 -8.34 c0.1 -0.28 0.28 -0.56 0.7 -0.56 l0.8 0 c0.58 0 0.66 0.32 0.66 0.64 l0 10.76 c0 0.42 -0.34 0.64 -0.68 0.64 s-0.66 -0.22 -0.66 -0.64 z M251.48 18.7 l0 -10.64 c0 -0.46 0.36 -0.7 0.7 -0.7 l4.6 0 c0.44 0 0.66 0.32 0.66 0.66 s-0.22 0.68 -0.66 0.68 l-3.96 0 l0 3.88 l3.14 0 c0.46 0 0.68 0.32 0.68 0.66 s-0.24 0.7 -0.68 0.7 l-3.14 0 l0 4.14 l3.96 0 c0.42 0 0.64 0.34 0.64 0.66 c0 0.34 -0.22 0.66 -0.64 0.66 l-4.6 0 c-0.34 0 -0.7 -0.12 -0.7 -0.7 z M268.82 8 l0 10.76 c0 0.42 -0.32 0.64 -0.64 0.64 c-0.24 0 -0.56 -0.18 -0.7 -0.44 c-1.5 -2.94 -2.62 -5.2 -4.12 -8.16 l0 7.96 c0 0.42 -0.32 0.64 -0.66 0.64 c-0.32 0 -0.66 -0.22 -0.66 -0.64 l0 -10.76 c0 -0.7 1 -0.74 1.22 -0.32 l4.22 8.34 l0 -8.02 c0 -0.42 0.32 -0.64 0.66 -0.64 s0.68 0.22 0.68 0.64 z M273.56 7.36 l6.04 0 c0.42 0 0.62 0.34 0.62 0.68 s-0.2 0.66 -0.62 0.66 l-2.28 0 l0 10.06 c0 0.42 -0.34 0.64 -0.68 0.64 s-0.66 -0.22 -0.66 -0.64 l0 -10.06 l-2.42 0 c-0.42 0 -0.62 -0.32 -0.62 -0.66 s0.2 -0.68 0.62 -0.68 z M285.18 21 c-0.4 0.78 -1.34 0.32 -1.04 -0.4 c0.14 -0.34 0.44 -0.7 0.48 -1.2 c-0.7 0.1 -1 -0.54 -1 -1.04 c0 -0.56 0.46 -1.08 1.14 -1.08 c0.74 0 1.1 0.56 1.1 1.18 c0 0.84 -0.34 1.9 -0.68 2.54 z M301.08 7.32 c1.82 0 3.76 0.7 3.76 2.76 c0 0.48 -0.32 0.7 -0.66 0.7 s-0.7 -0.24 -0.7 -0.7 c0 -0.16 -0.1 -1.46 -2.4 -1.46 c-1.82 0 -2.62 0.72 -2.62 2.44 l0 4.82 c0 1.74 0.98 2.28 2.62 2.28 c1.66 0 2.58 -0.68 2.58 -2.3 c0 -0.46 0.34 -0.68 0.66 -0.68 c0.34 0 0.66 0.22 0.66 0.68 c0 2.7 -1.5 3.6 -3.9 3.6 c-2.6 0 -3.92 -0.96 -3.92 -3.58 l0 -4.82 c0 -2.84 1.42 -3.74 3.92 -3.74 z M310.4 6.66 l0 0.84 c0 0.92 -1.32 0.9 -1.32 0 l0 -0.84 c0 -0.94 1.32 -0.9 1.32 0 z M314.22 18.7 l0 -10.64 c0 -0.46 0.36 -0.7 0.7 -0.7 l4.6 0 c0.44 0 0.66 0.32 0.66 0.66 s-0.22 0.68 -0.66 0.68 l-3.96 0 l0 3.88 l3.14 0 c0.46 0 0.68 0.32 0.68 0.66 s-0.24 0.7 -0.68 0.7 l-3.14 0 l0 4.14 l3.96 0 c0.42 0 0.64 0.34 0.64 0.66 c0 0.34 -0.22 0.66 -0.64 0.66 l-4.6 0 c-0.34 0 -0.7 -0.12 -0.7 -0.7 z M324.5 17.68 c-0.44 -0.82 0.68 -1.42 1.2 -0.6 c0.26 0.42 1.04 1.14 2.28 1.14 c0.52 0 1.82 -0.38 2 -1.86 c0.12 -0.9 -0.74 -1.78 -2.22 -2.52 c-2.08 -0.98 -3.66 -1.84 -3.66 -3.56 c0 -2.04 1.72 -3 3.56 -3 c1.66 0 2.58 1.02 2.9 1.54 c0.46 0.74 -0.54 1.46 -1.1 0.74 c-0.28 -0.36 -0.82 -0.96 -1.8 -0.96 c-1.1 0 -2.24 0.52 -2.24 1.68 c0 0.92 1.02 1.44 2.54 2.16 c1.78 0.88 3.64 1.74 3.36 4.08 c-0.22 1.84 -1.62 3.02 -3.34 3.02 c-1.3 0 -2.9 -0.7 -3.48 -1.86 z M335.42 7.36 l6.04 0 c0.42 0 0.62 0.34 0.62 0.68 s-0.2 0.66 -0.62 0.66 l-2.28 0 l0 10.06 c0 0.42 -0.34 0.64 -0.68 0.64 s-0.66 -0.22 -0.66 -0.64 l0 -10.06 l-2.42 0 c-0.42 0 -0.62 -0.32 -0.62 -0.66 s0.2 -0.68 0.62 -0.68 z M353.44 7.36 l6.04 0 c0.42 0 0.62 0.34 0.62 0.68 s-0.2 0.66 -0.62 0.66 l-2.28 0 l0 10.06 c0 0.42 -0.34 0.64 -0.68 0.64 s-0.66 -0.22 -0.66 -0.64 l0 -10.06 l-2.42 0 c-0.42 0 -0.62 -0.32 -0.62 -0.66 s0.2 -0.68 0.62 -0.68 z M364.14 15.86 l0 -4.96 c0 -2.4 1.24 -3.68 3.64 -3.68 l0.52 0 c2.38 0 3.64 1.28 3.64 3.68 l0 4.96 c0 2.2 -1.46 3.64 -3.64 3.64 l-0.52 0 c-2.22 0 -3.64 -1.46 -3.64 -3.64 z M367.78 18.16 l0.52 0 c1.44 0 2.3 -0.9 2.3 -2.3 l0 -4.96 c0 -1.56 -0.76 -2.36 -2.3 -2.36 l-0.52 0 c-1.52 0 -2.36 0.82 -2.36 2.36 l0 4.96 c0 1.46 0.92 2.3 2.36 2.3 z M376.74 18.78 l0 -10.78 c0 -0.42 0.32 -0.64 0.64 -0.64 s0.66 0.22 0.66 0.64 l0 10.78 c0 0.86 -1.3 0.86 -1.3 0 z M383.44 19.54 c-0.6 0 -1.06 -0.44 -1.06 -1.06 s0.46 -1.06 1.06 -1.06 c0.62 0 1.08 0.44 1.08 1.06 s-0.46 1.06 -1.08 1.06 z"></path></g><g id="SvgjsG2861" featureKey="nameLeftFeature-0" transform="matrix(1.0975608734911595,0,0,1.0975608734911595,39.243902576246256,6.658537989496557)" fill="#cc3b3b"><path d="M1.6 23.16 c0 -11.16 0.24 -15.56 6.24 -15.56 s6.24 4.4 6.24 15.56 c0 12.8 -0.24 17.24 -6.24 17.24 s-6.24 -4.44 -6.24 -17.24 z M5.6 23.16 c0 11.56 0 13.24 2.24 13.24 s2.24 -1.68 2.24 -13.24 c0 -10.4 0 -12.36 -2.24 -12.36 s-2.24 1.96 -2.24 12.36 z M17.68 40 l0 -32 l6.48 0 c4.12 0 5.52 2.52 5.52 7.36 c0 4.36 -0.52 6.84 -1.76 8.04 l0 0.24 c1.04 0.36 1.36 2.24 1.76 6.92 l0.8 9.44 l-4 0 l-0.52 -9.44 c-0.28 -4.76 -1 -5.76 -2.2 -5.76 l-2.08 0 l0 15.2 l-4 0 z M21.68 21.6 l2.48 0 c1.4 0 1.8 -1.4 1.8 -6.24 c0 -3.16 -0.6 -4.16 -1.8 -4.16 l-2.48 0 l0 10.4 z M33.68 40 l0 -32 l3.6 0 l5.24 19.6 l-0.04 -0.4 l0 -19.2 l4 0 l0 32 l-3.6 0 l-5.24 -17.6 l0.04 0.4 l0 17.2 l-4 0 z M50.48 40 l0 -32 l9.2 0 l0 3.2 l-5.2 0 l0 10.4 l4.4 0 l0 3.2 l-4.4 0 l0 11.2 l5.2 0 l0 4 l-9.2 0 z M62.48 40 l0 -32 l4 0 l0 28 l5.2 0 l0 4 l-9.2 0 z M74.08 40 l0 -32 l4 0 l0 28 l5.2 0 l0 4 l-9.2 0 z M85.68 40 l0 -16.8 c0 -11.16 0 -15.56 6 -15.56 s6 4.4 6 15.56 l0 16.8 l-4 0 l0 -9.2 l-4 0 l0 9.2 l-4 0 z M89.68 27.6 l4 0 l0 -4.4 c0 -10.4 0 -12.36 -2 -12.36 s-2 1.96 -2 12.36 l0 4.4 z M110.48 40 l0 -32 l8.4 0 l0 3.2 l-4.4 0 l0 12 l3.6 0 l0 3.2 l-3.6 0 l0 13.6 l-4 0 z M121.68 40 l0 -32 l4 0 l0 32 l-4 0 z M128.08 11.6 l0 -3.6 l12 0 l0 3.6 l-4 0 l0 28.4 l-4 0 l0 -28.4 l-4 0 z"></path></g><g id="SvgjsG2862" featureKey="inlineSymbolFeature-0" transform="matrix(0.6080203604426014,0,0,0.6080203604426014,190.86620706006593,-14.54037490600648)" fill="url(#SvgjsLinearGradient2872)"><g xmlns="http://www.w3.org/2000/svg"><path d="M78.96 25.39c-3.26.61-5.34 3.79-3.87 6.94a.26.22 5.6 0 1-.38.26l-.65-.36a.33.3 5.7 0 1-.16-.18c-1.31-3.5-.57-8.71 4.39-7.97a1.15.99 60.4 0 1 .31.11q.74.4.68.87a.39.39 0 0 1-.32.33M84.51 32.58c1.52-3.29-.66-6.6-4.05-7.22a.41.41 0 0 1-.34-.34q-.06-.49.71-.91a1.2 1.04-60.6 0 1 .32-.12c5.16-.78 5.95 4.64 4.6 8.29a.34.31-5.9 0 1-.17.19l-.67.38a.27.23-5.8 0 1-.4-.27" fill="url(#SvgjsLinearGradient2868)"></path><path d="M86.62 47.13q-2.44 2.25-5.62 2.58-5.12.54-7.61-2.92l1.23-3.83q.16-.5.68-.61c3.87-.85 1.42-4.92.55-6.95q-.13-.31-.46-.31H54.78a.47.46 79.2 0 0-.43.64l2.69 7.02q.18.46.78.42l14.84-.98a.75.75 0 0 1 .73 1.06l-2.98 6.52q-.24.52-.52.3l-.49-.36q-.52-.39-1.11-.39-6.27.06-11.81-.41-2.45-.21-3-2.15-1.64-5.7-2.06-8.31a4.03 4.02-4.5 0 0-3.98-3.39h-6.91a.64.64 0 0 1-.64-.64v-.58q0-.41.41-.41h8.23q.58 0 .73-.56l.12-.42a.78.77-89.3 0 1 .56-.55q1.68-.45 4-.24a.93.92-7.2 0 1 .77.59l.24.62q.23.58.84.58h19.26q.52 0 .48-.52-.15-1.59-.12-2.41c.19-5.23 8.49-5.2 8.9-.25q.12 1.4-.24 3.11-.12.6.3.26.07-.05.22-.13a.81.61-53 0 1 .28-.08l18.85-.04q.51 0 .85-.41 1.88-2.21 5.22-.96.46.17.91.99a.84.81 74.7 0 0 .71.42h7.55q.72 0 .68.72l-.03.52q-.02.38-.41.38h-8.19q-.47 0-.59.45-.23.89-1.09 1.16-.51.16-.65.68l-2.79 10.12q-.32 1.17-1.53 1.25l-13.22.87q-.49.04-.84.39l-.35.36q-.41.41-.57-.18-.78-2.88-2.84-6.15a1.05 1.04-14.5 0 1 .95-1.6l14.55.82q.3.01.4-.26l3.01-7.65a.19.19 0 0 0-.18-.26q-9.01.1-18.52.03-2.03-.01-2.46-.51-.29-.35-.4-.04l-1.54 4.7a2.31 2.18-79.4 0 0 1.94 3.03q.25.01.89.35a.89.87 8.1 0 1 .44.57zM87.47 120.79q-1.59-.42-3.43-.21-.61-7.67-.96-15.3-.25-5.3-1.12-9.97-1.47-7.93-.89-15.86a.86.86 0 0 0-.92-.92l-.41.03a.72.72 0 0 0-.68.74q.36 9.31-1.07 16.12-1.24 5.98-1.23 9.78.02 2.92-1.04 14.69c-.12 1.3.44 2.15 1.03 3.21q.86 1.64.97 3.33l-5.97.23q-.6-1.85.33-4.06-.25-5.55-1.84-11.34c-1.4-5.1-.27-8.7.34-13.51.37-2.9-.74-6.77-1.48-10.09-1.24-5.62-.99-11-.12-17.21q.32-2.31 2.99-7.52c.65-1.27.66-2.28.83-3.94a.64.64 0 0 1 .56-.57q6.4-.8 13.15.02.52.06.54.59c.14 4.18 3 7.66 3.78 11.55q2.08 10.26-.93 21c-.4 1.41-.75 4.22-.67 5.42.19 2.92 1.56 7.4.77 11.3q-1.31 6.51-2.19 12.15-.02.12-.12.22-.1.09-.22.12" fill="url(#SvgjsLinearGradient2868)"></path><path d="M84 121.2q1.93-.07 3.42.47l.57 1.64.44 3.21q-3.38.42-6.48-.24.86-1.62 1.03-3.15z" fill="url(#SvgjsLinearGradient2868)"></path></g><path xmlns="http://www.w3.org/2000/svg" fill="url(#SvgjsLinearGradient2872)" d="M73.39 46.79q2.49 3.46 7.61 2.92 3.18-.33 5.62-2.58 3.39 4.61.56 9.36-.27.45-.79.38-6.53-.87-13.08.14-.53.08-.78-.4-2.72-5.22.86-9.82"></path><g xmlns="http://www.w3.org/2000/svg"><path d="m87.47 120.79-.05.88q-1.49-.54-3.42-.47-.02-.43.04-.62 1.84-.21 3.43.21M72.08 122.6q-.93 2.21-.33 4.06-.39-.04-.46.04a.69.68 27.6 0 0 .37 1.14q2.99.6 6.17.09.55-.09.53-.64-.02-.54-.64-.86-.11-1.69-.97-3.33 3.07-.88 6.23.03-.17 1.53-1.03 3.15-1.28.9.29 1.58c1.46.63 4.37.34 5.86.08a.87.87 0 0 0 .73-.87q0-.22-.4-.55l-.44-3.21.52-.35q.42-.28.93-.26 15.96.59 26.49 2.24 3.14.49 4.61.96 2.01.62-.03 1.13-6.39 1.61-13.73 2.25-29.08 2.57-58.44-.32-6.3-.61-11.66-2.02a.38.38 0 0 1-.16-.64q.28-.27.67-.34 16.86-3.12 34.89-3.36" fill="#cc3b3b"></path></g></g><g id="SvgjsG2863" featureKey="nameRightFeature-0" transform="matrix(1.0975608734911595,0,0,1.0975608734911595,273.5853673343782,6.658537989496557)" fill="#cc3b3b"><path d="M10.4 23.16 c0 -11.16 0 -15.56 5.6 -15.56 c4.12 0 5.24 2.52 5.52 8.56 l-3.72 0 c-0.16 -4.36 -0.6 -5.36 -1.8 -5.36 c-1.84 0 -1.84 1.96 -1.84 12.36 c0 11.56 0 13.24 1.84 13.24 c1.32 0 1.72 -1 1.8 -6.16 l3.76 0 c-0.24 7.4 -1.24 10.16 -5.56 10.16 c-5.6 0 -5.6 -4.44 -5.6 -17.24 z M23.96 23.16 c0 -11.16 0.24 -15.56 6.24 -15.56 s6.24 4.4 6.24 15.56 c0 12.8 -0.24 17.24 -6.24 17.24 s-6.24 -4.44 -6.24 -17.24 z M27.96 23.16 c0 11.56 0 13.24 2.24 13.24 s2.24 -1.68 2.24 -13.24 c0 -10.4 0 -12.36 -2.24 -12.36 s-2.24 1.96 -2.24 12.36 z M40.04 40 l0 -16.8 c0 -11.16 0 -15.56 6 -15.56 s6 4.4 6 15.56 l0 16.8 l-4 0 l0 -9.2 l-4 0 l0 9.2 l-4 0 z M44.04 27.6 l4 0 l0 -4.4 c0 -10.4 0 -12.36 -2 -12.36 s-2 1.96 -2 12.36 l0 4.4 z M55.64 23.16 c0 -11.16 0 -15.56 5.6 -15.56 c4.12 0 5.24 2.52 5.52 8.56 l-3.72 0 c-0.16 -4.36 -0.6 -5.36 -1.8 -5.36 c-1.84 0 -1.84 1.96 -1.84 12.36 c0 11.56 0 13.24 1.84 13.24 c1.32 0 1.72 -1 1.8 -6.16 l3.76 0 c-0.24 7.4 -1.24 10.16 -5.56 10.16 c-5.6 0 -5.6 -4.44 -5.6 -17.24 z M69.6 40 l0 -32 l4 0 l0 13.6 l4 0 l0 -13.6 l4 0 l0 32 l-4 0 l0 -15.2 l-4 0 l0 15.2 l-4 0 z M85.6 40 l0 -32 l4 0 l0 32 l-4 0 z M93.6 40 l0 -32 l3.6 0 l5.24 19.6 l-0.04 -0.4 l0 -19.2 l4 0 l0 32 l-3.6 0 l-5.24 -17.6 l0.04 0.4 l0 17.2 l-4 0 z M110 23.16 c0 -11.16 0 -15.56 6 -15.56 c4.56 0 5.64 2.52 5.92 8.56 l-3.72 0 c-0.16 -4.36 -0.6 -5.36 -2.2 -5.36 c-2.24 0 -2.24 1.96 -2.24 12.36 c0 11.56 0 13.24 2.24 13.24 c2.12 0 2.24 -1.52 2.24 -10 l-2.64 0 l0 -3.2 l6.4 0 l0 1.56 c0 11.2 0 15.64 -6 15.64 s-6 -4.44 -6 -17.24 z"></path></g>
&#x9;&#x9;&#x9;</g>
&#x9;&#x9;</svg>